<?xml version="1.0"?>
<svg xmlns="http://www.w3.org/2000/svg" height="512px" viewBox="-11 0 512 512" width="512px" class=""><g><path d="m322.527344 0h-262.113282c-33.3125 0-60.414062 27.101562-60.414062 60.410156v347.472656c0 33.3125 27.101562 60.414063 60.410156 60.414063h218.007813l104.519531-190.59375v-217.292969c0-33.308594-27.101562-60.410156-60.410156-60.410156zm0 0" fill="#ededf2" data-original="#EDEDF2" class="active-path" data-old_color="#ededf2" style="fill:#EAEAEA"/><g fill="#e2e2e7"><path d="m166.28125 128.636719h-89.523438c-8.285156 0-15-6.714844-15-15 0-8.285157 6.714844-15 15-15h89.523438c8.28125 0 15 6.714843 15 15 0 8.285156-6.71875 15-15 15zm0 0" data-original="#000000" class="" data-old_color="#000000" style="fill:#B7B7B7"/><path d="m166.28125 188.640625h-89.523438c-8.285156 0-15-6.714844-15-15s6.714844-15 15-15h89.523438c8.28125 0 15 6.714844 15 15s-6.71875 15-15 15zm0 0" data-original="#000000" class="" data-old_color="#000000" style="fill:#B7B7B7"/><path d="m166.28125 248.644531h-89.523438c-8.285156 0-15-6.714843-15-15 0-8.285156 6.714844-15 15-15h89.523438c8.28125 0 15 6.714844 15 15 0 8.285157-6.71875 15-15 15zm0 0" data-original="#000000" class="" data-old_color="#000000" style="fill:#B7B7B7"/><path d="m166.28125 308.648438h-89.523438c-8.285156 0-15-6.714844-15-15 0-8.285157 6.714844-15 15-15h89.523438c8.28125 0 15 6.714843 15 15 0 8.285156-6.71875 15-15 15zm0 0" data-original="#000000" class="" data-old_color="#000000" style="fill:#B7B7B7"/><path d="m166.28125 369.65625h-89.523438c-8.285156 0-15-6.714844-15-15 0-8.28125 6.714844-15 15-15h89.523438c8.28125 0 15 6.71875 15 15 0 8.285156-6.71875 15-15 15zm0 0" data-original="#000000" class="" data-old_color="#000000" style="fill:#B7B7B7"/><path d="m322.527344 0h-131.058594v468.292969h86.949219l104.519531-190.589844v-217.292969c0-33.308594-27.101562-60.410156-60.410156-60.410156zm0 0" data-original="#000000" class="" data-old_color="#000000" style="fill:#B7B7B7"/></g><path d="m306.179688 128.636719h-89.523438c-8.28125 0-15-6.714844-15-15 0-8.285157 6.71875-15 15-15h89.523438c8.285156 0 15 6.714843 15 15 0 8.285156-6.714844 15-15 15zm0 0" fill="#d3d3d8" data-original="#D3D3D8" class=""/><path d="m306.179688 188.640625h-89.523438c-8.28125 0-15-6.714844-15-15s6.71875-15 15-15h89.523438c8.285156 0 15 6.714844 15 15s-6.714844 15-15 15zm0 0" fill="#d3d3d8" data-original="#D3D3D8" class=""/><path d="m259.773438 248.644531h-43.117188c-8.28125 0-15-6.714843-15-15 0-8.285156 6.71875-15 15-15h43.117188c8.285156 0 15 6.714844 15 15 0 8.285157-6.714844 15-15 15zm0 0" fill="#d3d3d8" data-original="#D3D3D8" class=""/><path d="m454.785156 299.941406c-23.023437-23.429687-53.773437-36.65625-86.582031-37.234375l-.214844-.003906c-.675781-.011719-1.351562-.023437-2.027343-.023437-68.691407 0-124.574219 55.921874-124.574219 124.660156 0 27.300781 8.664062 53.226562 25.050781 74.980468 23.785156 31.574219 60.058594 49.679688 99.523438 49.679688 68.691406 0 124.574218-55.921875 124.574218-124.660156 0-32.90625-12.695312-63.945313-35.75-87.398438zm0 0" fill="#0be7d5" data-original="#0BE7D5" class="" data-old_color="#0be7d5" style="fill:#0BA360"/><path d="m359.90625 431.992188c-3.058594 0-6.136719-.933594-8.792969-2.855469l-35.480469-25.707031c-6.707031-4.859376-8.207031-14.238282-3.34375-20.949219 4.859376-6.707031 14.238282-8.207031 20.945313-3.34375l23.917969 17.328125 38.636718-48.164063c5.183594-6.460937 14.621094-7.496093 21.085938-2.3125 6.460938 5.183594 7.496094 14.625 2.3125 21.085938l-47.570312 59.304687c-2.957032 3.679688-7.308594 5.613282-11.710938 5.613282zm0 0" fill="#00a793" data-original="#00A793" class="" data-old_color="#00a793" style="fill:#FFFFFF"/></g> </svg>
