<?xml version="1.0"?>
<svg xmlns="http://www.w3.org/2000/svg" xmlns:xlink="http://www.w3.org/1999/xlink" version="1.1" id="Capa_1" x="0px" y="0px" viewBox="0 0 512 512" style="enable-background:new 0 0 512 512;" xml:space="preserve" width="512px" height="512px"><g><g>
	<g>
		<path d="M256,31c-33.091,0-61,26.909-61,60s27.909,60,61,60s61-26.909,61-60S289.091,31,256,31z" data-original="#000000" class="active-path" data-old_color="#000000" fill="#FFFFFF"/>
	</g>
</g><g>
	<g>
		<path d="M422,271c-33.091,0-60,26.909-60,60s26.909,60,60,60s60-26.909,60-60S455.091,271,422,271z" data-original="#000000" class="active-path" data-old_color="#000000" fill="#FFFFFF"/>
	</g>
</g><g>
	<g>
		<path d="M90,271c-33.091,0-60,26.909-60,60s26.909,60,60,60s60-26.909,60-60S123.091,271,90,271z" data-original="#000000" class="active-path" data-old_color="#000000" fill="#FFFFFF"/>
	</g>
</g><g>
	<g>
		<path d="M323.592,151c-16.485,18.279-41.096,30-67.592,30c-26.496,0-51.107-11.721-67.592-30C174.016,166.959,165,187.866,165,211    v15c0,8.291,6.709,15,15,15h152c8.291,0,15-6.709,15-15v-15C347,187.866,337.984,166.959,323.592,151z" data-original="#000000" class="active-path" data-old_color="#000000" fill="#FFFFFF"/>
	</g>
</g><g>
	<g>
		<path d="M488.592,391c-16.485,18.279-40.097,30-66.592,30s-50.107-11.721-66.592-30C341.016,406.959,332,427.866,332,451v15    c0,8.291,6.709,15,15,15h150c8.291,0,15-6.709,15-15v-15C512,427.866,502.984,406.959,488.592,391z" data-original="#000000" class="active-path" data-old_color="#000000" fill="#FFFFFF"/>
	</g>
</g><g>
	<g>
		<path d="M156.592,391c-16.485,18.279-40.096,30-66.592,30c-26.496,0-50.107-11.721-66.592-30C9.016,406.959,0,427.866,0,451v15    c0,8.291,6.709,15,15,15h150c8.291,0,15-6.709,15-15v-15C180,427.866,170.984,406.959,156.592,391z" data-original="#000000" class="active-path" data-old_color="#000000" fill="#FFFFFF"/>
	</g>
</g><g>
	<g>
		<rect x="210" y="421" width="92" height="30" data-original="#000000" class="active-path" data-old_color="#000000" fill="#FFFFFF"/>
	</g>
</g><g>
	<g>
		<path d="M120,181c-24.814,0-45,20.186-45,45v15h30v-15c0-8.276,6.724-15,15-15h15v-30H120z" data-original="#000000" class="active-path" data-old_color="#000000" fill="#FFFFFF"/>
	</g>
</g><g>
	<g>
		<path d="M392,181h-15v30h15c8.276,0,15,6.724,15,15v15h30v-15C437,201.186,416.814,181,392,181z" data-original="#000000" class="active-path" data-old_color="#000000" fill="#FFFFFF"/>
	</g>
</g></g> </svg>
